# xmcd
#
# Track frame offsets:
#	150
#	13965
#	25680
#	34147
#	52620
#	64425
#	83162
#	121165
#	132340
#	146350
#	155745
#	170240
#	180085
#	190495
#	203725
#	213317
#	227402
#	239277
#	251585
#	264085
#	274775
#	287647
#	297000
#
# Disc length: 4138 seconds
#
# Revision: 0
# Processed by: cddbd v1.5.2PL0 Copyright (c) Steve Scherf et al.
# Submitted via: audiograbber 1.83.01
#
DISCID=44102817
DTITLE=Johnny Cash - The Essential Johnny Cash
DYEAR=1900
DGENRE=
TTITLE0=Don't Take Your Guns To Town
TTITLE1=The Ballad Of Boot Hill
TTITLE2=The Rebel
TTITLE3=The Big Battle
TTITLE4=When The Roses Bloom Again
TTITLE5=The Battle Of Ira Hayes
TTITLE6=The Legend Of John Henry's Hammer
TTITLE7=Dark As A Dungeon
TTITLE8=The Long Black Veil
TTITLE9=I Got Stripes
TTITLE10=25 Minutes
TTITLE11=The Wall
TTITLE12=Busted
TTITLE13=Bad News
TTITLE14=Dirty Old Egg-Sucking Dog
TTITLE15=Orange Blossom Special
TTITLE16=Ring Of Fire
TTITLE17=Understand Your Man
TTITLE18=Jackson
TTITLE19=Blistered
TTITLE20=See Ruby Fall
TTITLE21=Cisco Clifton's Fillin' Station
TTITLE22=Daddy Sang Bass
EXTD=
EXTT0=
EXTT1=
EXTT2=
EXTT3=
EXTT4=
EXTT5=
EXTT6=
EXTT7=
EXTT8=
EXTT9=
EXTT10=
EXTT11=
EXTT12=
EXTT13=
EXTT14=
EXTT15=
EXTT16=
EXTT17=
EXTT18=
EXTT19=
EXTT20=
EXTT21=
EXTT22=
PLAYORDER=
